<?xml version="1.0" standalone="no"?>
<!DOCTYPE svg PUBLIC "-//W3C//DTD SVG 20010904//EN"
 "http://www.w3.org/TR/2001/REC-SVG-20010904/DTD/svg10.dtd">
<svg version="1.0" xmlns="http://www.w3.org/2000/svg"
 width="120.000000pt" height="120.000000pt" viewBox="0 0 120.000000 120.000000"
 preserveAspectRatio="xMidYMid meet">
<metadata>
Created by potrace 1.11, written by Peter Selinger 2001-2013
</metadata>
<g transform="translate(0.000000,120.000000) scale(0.100000,-0.100000)"
fill="#000000" stroke="none">
<path d="M260 760 l0 -110 198 0 198 0 74 49 c41 26 116 75 165 107 l90 59
-72 3 c-68 3 -74 1 -140 -39 -135 -83 -121 -79 -268 -79 l-135 0 0 60 0 60
-55 0 -55 0 0 -110z"/>
<path d="M260 509 l0 -110 53 3 52 3 3 58 3 57 136 0 135 0 227 -137 c124 -75
250 -149 279 -165 l52 -30 0 49 0 48 -193 119 c-105 65 -208 129 -227 141
-126 81 -98 75 -320 75 l-200 0 0 -111z"/>
</g>
</svg>
